<?xml version="1.0"?>
<svg xmlns:rdf="http://www.w3.org/1999/02/22-rdf-syntax-ns#" xmlns="http://www.w3.org/2000/svg" xmlns:cc="http://web.resource.org/cc/" xmlns:xlink="http://www.w3.org/1999/xlink" xmlns:dc="http://purl.org/dc/elements/1.1/" xmlns:svg="http://www.w3.org/2000/svg" id="Layer_1" enable-background="new 0 0 178.597 88.606" xml:space="preserve" viewBox="0 0 178.597 88.606" version="1.1" y="0px" x="0px">
	<linearGradient id="SVGID_1_" y2="23.605" gradientUnits="userSpaceOnUse" x2="86.803" y1="45.605" x1="15.303">
		<stop stop-color="#43383E" stop-opacity=".01" offset="0"/>
		<stop stop-color="#372F36" stop-opacity=".1274" offset=".1186"/>
		<stop stop-color="#1C191E" stop-opacity=".4156" offset=".4097"/>
		<stop stop-color="#070609" stop-opacity=".706" offset=".7031"/>
		<stop offset="1"/>
	</linearGradient>
	<path d="m76.609 17.101c-10.5 1.667-21 2.939-35.667 10.386s-23.167 12.28-23.167 12.28l6.667 11.827s18.167-9.45 34.833-13.055c16.667-3.605 20.21-0.939 20.21-0.939l-2.876-20.499z" fill="url(#SVGID_1_)"/>
			<linearGradient id="SVGID_2_" y2="14.293" gradientUnits="userSpaceOnUse" x2="97.222" y1="45.418" x1="81.972">
				<stop stop-color="#43383E" offset="0"/>
				<stop stop-color="#453B41" offset=".0531"/>
				<stop stop-color="#4D4249" offset=".0871"/>
				<stop stop-color="#594E56" offset=".1156"/>
				<stop stop-color="#695E67" offset=".1411"/>
				<stop stop-color="#7B707A" offset=".1645"/>
				<stop stop-color="#7D727C" offset=".1667"/>
				<stop stop-color="#6F646D" offset=".1753"/>
				<stop stop-color="#635861" offset=".1859"/>
				<stop stop-color="#5A4F57" offset=".1991"/>
				<stop stop-color="#554A51" offset=".2175"/>
				<stop stop-color="#53484F" offset=".2688"/>
				<stop stop-color="#987C8D" offset=".3333"/>
				<stop stop-color="#BEA7BD" offset=".6505"/>
				<stop stop-color="#4A3F45" offset=".8226"/>
				<stop stop-color="#4B4148" offset=".8743"/>
				<stop stop-color="#514850" offset=".9108"/>
				<stop stop-color="#5B535D" offset=".9425"/>
				<stop stop-color="#65606D" offset=".9714"/>
				<stop stop-color="#706F80" offset=".9985"/>
				<stop stop-color="#707081" offset="1"/>
			</linearGradient>
			<path d="m85.776 11.768l29.25 9.667s-9.583-3.583-17.583 10.333 2.25 23.167 2.25 23.167-24.671-13.417-25.921-14.334-5.25-5.417-4.333-12.167c0.917-6.75 3.417-10.583 6.667-12.833s6.749-4.167 9.666-3.833z" fill="url(#SVGID_2_)"/>
				<radialGradient id="SVGID_3_" gradientUnits="userSpaceOnUse" cy="19.018" cx="75.776" r="18.676">
					<stop stop-color="#00AEEF" offset="0"/>
					<stop stop-color="#00ABED" offset=".3763"/>
					<stop stop-color="#00A6E6" offset=".5118"/>
					<stop stop-color="#009FDD" offset=".6084"/>
					<stop stop-color="#0096D2" offset=".6866"/>
					<stop stop-color="#008AC4" offset=".7526"/>
					<stop stop-color="#187CB4" offset=".811"/>
					<stop stop-color="#1A7BB4" offset=".8118"/>
					<stop stop-color="#00497A" offset="1"/>
				</radialGradient>
				<path d="m73.905 30.562c0.985-7.115 3.672-11.155 7.165-13.526 2.85-1.935 5.873-3.613 8.594-3.983l-3.888-1.285c-2.917-0.333-6.417 1.583-9.667 3.833s-5.75 6.083-6.667 12.833c-0.917 6.75 3.083 11.25 4.333 12.167 0.314 0.23 2.104 1.248 4.609 2.644-1.5-1.21-5.426-5.846-4.479-12.683z" fill="url(#SVGID_3_)"/>
			<radialGradient id="SVGID_4_" gradientUnits="userSpaceOnUse" cy="39.101" cx="118.23" r="29.817">
				<stop stop-color="#D5E1E7" offset="0"/>
				<stop stop-color="#D1D9E1" offset=".0642"/>
				<stop stop-color="#C5C7D1" offset=".1445"/>
				<stop stop-color="#B2ACB8" offset=".2333"/>
				<stop stop-color="#988898" offset=".3277"/>
				<stop stop-color="#958493" offset=".3387"/>
				<stop stop-color="#7C6E7A" offset=".5759"/>
				<stop stop-color="#43383E" offset="1"/>
			</radialGradient>
			<polygon points="141.23 31.726 134.38 25.768 117.69 37.601 113.44 59.934 125.23 69.476 139.11 52.226" fill="url(#SVGID_4_)"/>
			<radialGradient id="SVGID_5_" gradientUnits="userSpaceOnUse" cy="33.373" cx="101.87" r="14.917">
				<stop stop-color="#D5E1E7" offset="0"/>
				<stop stop-color="#D1D9E1" offset=".0642"/>
				<stop stop-color="#C5C7D1" offset=".1445"/>
				<stop stop-color="#B2ACB8" offset=".2333"/>
				<stop stop-color="#988898" offset=".3277"/>
				<stop stop-color="#958493" offset=".3387"/>
				<stop stop-color="#7C6E7A" offset=".5759"/>
				<stop stop-color="#43383E" offset="1"/>
			</radialGradient>
			<path d="m117.86 23.268c-0.114-1.112-3.198-2.231-6.765-2.199-3.568 0.032-10.717 4.444-13.767 10.905s-4.303 11.598-0.969 18.363 5.918 5.598 6.501 5.598c0-0.001 17-13.084 15-32.667z" fill="url(#SVGID_5_)"/>
			<radialGradient id="SVGID_6_" gradientUnits="userSpaceOnUse" cy="43.601" cx="98.234" r="24.289">
				<stop stop-color="#D5E1E7" offset="0"/>
				<stop stop-color="#D1D9E1" offset=".0642"/>
				<stop stop-color="#C5C7D1" offset=".1445"/>
				<stop stop-color="#B2ACB8" offset=".2333"/>
				<stop stop-color="#988898" offset=".3277"/>
				<stop stop-color="#958493" offset=".3387"/>
				<stop stop-color="#7C6E7A" offset=".574"/>
				<stop stop-color="#43383E" offset=".9946"/>
			</radialGradient>
			<path d="m105.94 32.768s-2.333 4.583-3.167 10c-0.833 5.417-0.917 11.333-0.917 11.333l11.583 5.833s2.917-6.75 3.5-10.167 0.75-12.167 0.75-12.167l-11.74-4.832z" fill="url(#SVGID_6_)"/>
			<radialGradient id="SVGID_7_" gradientUnits="userSpaceOnUse" cy="21.351" cx="94.609" r="30.084">
				<stop stop-color="#D5E1E7" offset="0"/>
				<stop stop-color="#D1D9E1" offset=".0642"/>
				<stop stop-color="#C5C7D1" offset=".1445"/>
				<stop stop-color="#B2ACB8" offset=".2333"/>
				<stop stop-color="#988898" offset=".3277"/>
				<stop stop-color="#958493" offset=".3387"/>
				<stop stop-color="#7C6E7A" offset=".5759"/>
				<stop stop-color="#43383E" offset="1"/>
			</radialGradient>
			<path d="m122.19 21.684s-6.583 3.167-8.083 4.333c-1.5 1.167-8.167 6.75-8.167 6.75l11.75 4.833s7.333-4.167 9.25-5.25 7.434-6.583 7.434-6.583l-12.18-4.083z" fill="url(#SVGID_7_)"/>
			<radialGradient id="SVGID_8_" gradientUnits="userSpaceOnUse" cy="71.351" cx="104.61" r="19.015">
				<stop stop-color="#D5E1E7" offset="0"/>
				<stop stop-color="#D1D9E1" offset=".0642"/>
				<stop stop-color="#C5C7D1" offset=".1445"/>
				<stop stop-color="#B2ACB8" offset=".2333"/>
				<stop stop-color="#988898" offset=".3277"/>
				<stop stop-color="#958493" offset=".3387"/>
				<stop stop-color="#7C6E7A" offset=".5759"/>
				<stop stop-color="#43383E" offset="1"/>
			</radialGradient>
			<path d="m124.03 68.601s-11.083-5.583-11.583-5.917c-0.5-0.333-9-6.248-10.25-8.415l11.25 5.665 10.58 8.667z" fill="url(#SVGID_8_)"/>
			<linearGradient id="SVGID_9_" y2="30.651" gradientUnits="userSpaceOnUse" x2="138.61" y1="65.266" x1="121.65">
				<stop stop-color="#43383E" offset="0"/>
				<stop stop-color="#453B41" offset=".0531"/>
				<stop stop-color="#4D4249" offset=".0871"/>
				<stop stop-color="#594E56" offset=".1156"/>
				<stop stop-color="#695E67" offset=".1411"/>
				<stop stop-color="#7B707A" offset=".1645"/>
				<stop stop-color="#7D727C" offset=".1667"/>
				<stop stop-color="#6F646D" offset=".1753"/>
				<stop stop-color="#635861" offset=".1859"/>
				<stop stop-color="#5A4F57" offset=".1991"/>
				<stop stop-color="#554A51" offset=".2175"/>
				<stop stop-color="#53484F" offset=".2688"/>
				<stop stop-color="#987C8D" offset=".3333"/>
				<stop stop-color="#BEA7BD" offset=".6505"/>
				<stop stop-color="#4A3F45" offset=".8226"/>
				<stop stop-color="#4B4148" offset=".8743"/>
				<stop stop-color="#514850" offset=".9108"/>
				<stop stop-color="#5B535D" offset=".9425"/>
				<stop stop-color="#65606D" offset=".9714"/>
				<stop stop-color="#706F80" offset=".9985"/>
				<stop stop-color="#707081" offset="1"/>
			</linearGradient>
			<path d="m127.74 56.62c1.255-9.638 4.678-15.112 9.127-18.325 3.676-2.654 8.365-3.983 11.864-4.444l-8.745-3.513c-3.754-0.429-9.869 1.391-14.052 4.287s-7.401 7.83-8.581 16.518 3.969 14.48 5.577 15.659c0.51 0.374 4.458 1.756 9.05 4.299-2.15-2.9-5.14-7.549-4.24-14.481z" fill="url(#SVGID_9_)"/>
					<linearGradient id="SVGID_10_" y2="76.385" gradientUnits="userSpaceOnUse" x2="132.25" y1="38.76" x1="153.87">
						<stop stop-color="#43383E" offset="0"/>
						<stop stop-color="#453B41" offset=".0514"/>
						<stop stop-color="#4D4249" offset=".0842"/>
						<stop stop-color="#594E56" offset=".1119"/>
						<stop stop-color="#695E67" offset=".1366"/>
						<stop stop-color="#7B707A" offset=".1592"/>
						<stop stop-color="#7D727C" offset=".1613"/>
						<stop stop-color="#766B74" offset=".2218"/>
						<stop stop-color="#62575F" offset=".3268"/>
						<stop stop-color="#50454C" offset=".3978"/>
						<stop stop-color="#52474E" offset=".4259"/>
						<stop stop-color="#594E56" offset=".4462"/>
						<stop stop-color="#655962" offset=".464"/>
						<stop stop-color="#746772" offset=".4804"/>
						<stop stop-color="#877885" offset=".4958"/>
						<stop stop-color="#9D8C9D" offset=".5105"/>
						<stop stop-color="#B8A2B7" offset=".5243"/>
						<stop stop-color="#BEA7BD" offset=".5269"/>
						<stop stop-color="#4A3F45" offset="1"/>
					</linearGradient>
					<path d="m148.28 37.095c2.077 2.622 2.925 7.141 1.75 12.812-2.268 10.945-10.204 16.886-14.741 16.886-1.362 0-2.517-0.357-3.486-0.985 1.193 1.536 2.862 2.461 5.07 2.461 4.537 0 12.473-5.941 14.741-16.886 1.44-6.951-0.15-12.173-3.33-14.288z" fill="url(#SVGID_10_)"/>
					<linearGradient id="SVGID_11_" y2="75.47" gradientUnits="userSpaceOnUse" x2="130.66" y1="37.845" x1="152.28">
						<stop stop-color="#43383E" offset="0"/>
						<stop stop-color="#453B41" offset=".0514"/>
						<stop stop-color="#4D4249" offset=".0842"/>
						<stop stop-color="#594E56" offset=".1119"/>
						<stop stop-color="#695E67" offset=".1366"/>
						<stop stop-color="#7B707A" offset=".1592"/>
						<stop stop-color="#7D727C" offset=".1613"/>
						<stop stop-color="#766B74" offset=".2218"/>
						<stop stop-color="#62575F" offset=".3268"/>
						<stop stop-color="#50454C" offset=".3978"/>
						<stop stop-color="#52474E" offset=".4259"/>
						<stop stop-color="#594E56" offset=".4462"/>
						<stop stop-color="#655962" offset=".464"/>
						<stop stop-color="#746772" offset=".4804"/>
						<stop stop-color="#877885" offset=".4958"/>
						<stop stop-color="#9D8C9D" offset=".5105"/>
						<stop stop-color="#B8A2B7" offset=".5243"/>
						<stop stop-color="#BEA7BD" offset=".5269"/>
						<stop stop-color="#4A3F45" offset="1"/>
					</linearGradient>
					<path d="m150.03 49.906c1.175-5.671 0.327-10.189-1.75-12.812-0.44-0.293-0.909-0.528-1.406-0.698 1.698 2.691 2.313 6.912 1.239 12.093-2.268 10.945-10.204 16.886-14.741 16.886-0.76 0-1.453-0.116-2.089-0.322 0.161 0.266 0.335 0.516 0.519 0.753 0.969 0.628 2.124 0.985 3.486 0.985 4.54 0.001 12.47-5.94 14.74-16.885z" fill="url(#SVGID_11_)"/>
					<linearGradient id="SVGID_12_" y2="74.66" gradientUnits="userSpaceOnUse" x2="129.25" y1="37.035" x1="150.87">
						<stop stop-color="#43383E" offset="0"/>
						<stop stop-color="#453B41" offset=".0514"/>
						<stop stop-color="#4D4249" offset=".0842"/>
						<stop stop-color="#594E56" offset=".1119"/>
						<stop stop-color="#695E67" offset=".1366"/>
						<stop stop-color="#7B707A" offset=".1592"/>
						<stop stop-color="#7D727C" offset=".1613"/>
						<stop stop-color="#766B74" offset=".2218"/>
						<stop stop-color="#62575F" offset=".3268"/>
						<stop stop-color="#50454C" offset=".3978"/>
						<stop stop-color="#52474E" offset=".4259"/>
						<stop stop-color="#594E56" offset=".4462"/>
						<stop stop-color="#655962" offset=".464"/>
						<stop stop-color="#746772" offset=".4804"/>
						<stop stop-color="#877885" offset=".4958"/>
						<stop stop-color="#9D8C9D" offset=".5105"/>
						<stop stop-color="#B8A2B7" offset=".5243"/>
						<stop stop-color="#BEA7BD" offset=".5269"/>
						<stop stop-color="#4A3F45" offset="1"/>
					</linearGradient>
					<path d="m146.57 47.031c-2.268 10.945-10.204 16.886-14.741 16.886-0.411 0-0.799-0.041-1.174-0.103 0.187 0.439 0.393 0.855 0.627 1.239 0.636 0.205 1.328 0.322 2.089 0.322 4.537 0 12.473-5.941 14.741-16.886 1.074-5.182 0.459-9.403-1.239-12.093-0.287-0.098-0.583-0.173-0.886-0.228 1.18 2.672 1.5 6.415 0.58 10.863z" fill="url(#SVGID_12_)"/>
					<linearGradient id="SVGID_13_" y2="73.982" gradientUnits="userSpaceOnUse" x2="128.07" y1="36.357" x1="149.69">
						<stop stop-color="#43383E" offset="0"/>
						<stop stop-color="#453B41" offset=".0514"/>
						<stop stop-color="#4D4249" offset=".0842"/>
						<stop stop-color="#594E56" offset=".1119"/>
						<stop stop-color="#695E67" offset=".1366"/>
						<stop stop-color="#7B707A" offset=".1592"/>
						<stop stop-color="#7D727C" offset=".1613"/>
						<stop stop-color="#766B74" offset=".2218"/>
						<stop stop-color="#62575F" offset=".3268"/>
						<stop stop-color="#50454C" offset=".3978"/>
						<stop stop-color="#52474E" offset=".4259"/>
						<stop stop-color="#594E56" offset=".4462"/>
						<stop stop-color="#655962" offset=".464"/>
						<stop stop-color="#746772" offset=".4804"/>
						<stop stop-color="#877885" offset=".4958"/>
						<stop stop-color="#9D8C9D" offset=".5105"/>
						<stop stop-color="#B8A2B7" offset=".5243"/>
						<stop stop-color="#BEA7BD" offset=".5269"/>
						<stop stop-color="#4A3F45" offset="1"/>
					</linearGradient>
					<path d="m146.57 47.031c0.922-4.448 0.6-8.191-0.584-10.863-0.232-0.042-0.466-0.076-0.707-0.092 0.753 2.524 0.856 5.759 0.083 9.493-2.268 10.945-10.204 16.886-14.741 16.886-0.162 0-0.312-0.022-0.468-0.032 0.142 0.491 0.314 0.949 0.503 1.392 0.375 0.062 0.763 0.103 1.174 0.103 4.55-0.001 12.48-5.942 14.75-16.887z" fill="url(#SVGID_13_)"/>
					<linearGradient id="SVGID_14_" y2="73.18" gradientUnits="userSpaceOnUse" x2="126.67" y1="35.555" x1="148.3">
						<stop stop-color="#43383E" offset="0"/>
						<stop stop-color="#453B41" offset=".0514"/>
						<stop stop-color="#4D4249" offset=".0842"/>
						<stop stop-color="#594E56" offset=".1119"/>
						<stop stop-color="#695E67" offset=".1366"/>
						<stop stop-color="#7B707A" offset=".1592"/>
						<stop stop-color="#7D727C" offset=".1613"/>
						<stop stop-color="#766B74" offset=".2218"/>
						<stop stop-color="#62575F" offset=".3268"/>
						<stop stop-color="#50454C" offset=".3978"/>
						<stop stop-color="#52474E" offset=".4259"/>
						<stop stop-color="#594E56" offset=".4462"/>
						<stop stop-color="#655962" offset=".464"/>
						<stop stop-color="#746772" offset=".4804"/>
						<stop stop-color="#877885" offset=".4958"/>
						<stop stop-color="#9D8C9D" offset=".5105"/>
						<stop stop-color="#B8A2B7" offset=".5243"/>
						<stop stop-color="#BEA7BD" offset=".5269"/>
						<stop stop-color="#4A3F45" offset="1"/>
					</linearGradient>
					<path d="m143.56 36.175c0.484 2.336 0.469 5.169-0.195 8.374-2.072 9.999-8.868 15.806-13.488 16.737 0.08 0.39 0.173 0.77 0.278 1.137 0.157 0.01 0.306 0.032 0.468 0.032 4.537 0 12.473-5.941 14.741-16.886 0.774-3.734 0.67-6.969-0.083-9.493-0.55-0.038-1.13-0.004-1.72 0.099z" fill="url(#SVGID_14_)"/>
					<linearGradient id="SVGID_15_" y2="72.314" gradientUnits="userSpaceOnUse" x2="125.16" y1="34.689" x1="146.79">
						<stop stop-color="#43383E" offset="0"/>
						<stop stop-color="#453B41" offset=".0514"/>
						<stop stop-color="#4D4249" offset=".0842"/>
						<stop stop-color="#594E56" offset=".1119"/>
						<stop stop-color="#695E67" offset=".1366"/>
						<stop stop-color="#7B707A" offset=".1592"/>
						<stop stop-color="#7D727C" offset=".1613"/>
						<stop stop-color="#766B74" offset=".2218"/>
						<stop stop-color="#62575F" offset=".3268"/>
						<stop stop-color="#50454C" offset=".3978"/>
						<stop stop-color="#52474E" offset=".4259"/>
						<stop stop-color="#594E56" offset=".4462"/>
						<stop stop-color="#655962" offset=".464"/>
						<stop stop-color="#746772" offset=".4804"/>
						<stop stop-color="#877885" offset=".4958"/>
						<stop stop-color="#9D8C9D" offset=".5105"/>
						<stop stop-color="#B8A2B7" offset=".5243"/>
						<stop stop-color="#BEA7BD" offset=".5269"/>
						<stop stop-color="#4A3F45" offset="1"/>
					</linearGradient>
					<path d="m143.36 44.549c0.664-3.204 0.679-6.038 0.195-8.374-0.55 0.095-1.117 0.256-1.696 0.478 0.177 1.951 0.047 4.171-0.457 6.604-1.83 8.831-7.349 14.399-11.797 16.222 0.064 0.622 0.148 1.229 0.267 1.806 4.63-0.93 11.42-6.737 13.49-16.736z" fill="url(#SVGID_15_)"/>
					<linearGradient id="SVGID_16_" y2="71.445" gradientUnits="userSpaceOnUse" x2="123.65" y1="33.82" x1="145.28">
						<stop stop-color="#43383E" offset="0"/>
						<stop stop-color="#453B41" offset=".0514"/>
						<stop stop-color="#4D4249" offset=".0842"/>
						<stop stop-color="#594E56" offset=".1119"/>
						<stop stop-color="#695E67" offset=".1366"/>
						<stop stop-color="#7B707A" offset=".1592"/>
						<stop stop-color="#7D727C" offset=".1613"/>
						<stop stop-color="#766B74" offset=".2218"/>
						<stop stop-color="#62575F" offset=".3268"/>
						<stop stop-color="#50454C" offset=".3978"/>
						<stop stop-color="#52474E" offset=".4259"/>
						<stop stop-color="#594E56" offset=".4462"/>
						<stop stop-color="#655962" offset=".464"/>
						<stop stop-color="#746772" offset=".4804"/>
						<stop stop-color="#877885" offset=".4958"/>
						<stop stop-color="#9D8C9D" offset=".5105"/>
						<stop stop-color="#B8A2B7" offset=".5243"/>
						<stop stop-color="#BEA7BD" offset=".5269"/>
						<stop stop-color="#4A3F45" offset="1"/>
					</linearGradient>
					<path d="m140.05 37.514c-0.049 1.29-0.214 2.665-0.515 4.119-1.595 7.697-5.991 12.906-10.039 15.328-0.006 0.867 0.032 1.709 0.116 2.519 4.447-1.823 9.967-7.391 11.797-16.222 0.504-2.433 0.635-4.653 0.457-6.604-0.117 0.045-0.233 0.085-0.351 0.135-0.52 0.214-1.01 0.461-1.48 0.725z" fill="url(#SVGID_16_)"/>
					<linearGradient id="SVGID_17_" y2="69.988" gradientUnits="userSpaceOnUse" x2="121.12" y1="32.363" x1="142.74">
						<stop stop-color="#43383E" offset="0"/>
						<stop stop-color="#453B41" offset=".0514"/>
						<stop stop-color="#4D4249" offset=".0842"/>
						<stop stop-color="#594E56" offset=".1119"/>
						<stop stop-color="#695E67" offset=".1366"/>
						<stop stop-color="#7B707A" offset=".1592"/>
						<stop stop-color="#7D727C" offset=".1613"/>
						<stop stop-color="#766B74" offset=".2218"/>
						<stop stop-color="#62575F" offset=".3268"/>
						<stop stop-color="#50454C" offset=".3978"/>
						<stop stop-color="#52474E" offset=".4259"/>
						<stop stop-color="#594E56" offset=".4462"/>
						<stop stop-color="#655962" offset=".464"/>
						<stop stop-color="#746772" offset=".4804"/>
						<stop stop-color="#877885" offset=".4958"/>
						<stop stop-color="#9D8C9D" offset=".5105"/>
						<stop stop-color="#B8A2B7" offset=".5243"/>
						<stop stop-color="#BEA7BD" offset=".5269"/>
						<stop stop-color="#4A3F45" offset="1"/>
					</linearGradient>
					<path d="m137.89 38.539c-0.906 0.823-8.278 4.686-8.239 15.79-0.031 0.274-0.067 0.55-0.087 0.82-0.045 0.614-0.063 1.216-0.067 1.811 4.048-2.422 8.444-7.632 10.039-15.328 0.301-1.453 0.466-2.829 0.515-4.119-0.699 0.388-1.364 0.83-2 1.315-0.07 0.496 0.24-0.642-0.15-0.289z" fill="url(#SVGID_17_)"/>
					<linearGradient id="SVGID_18_" y2="75.838" gradientUnits="userSpaceOnUse" x2="129.47" y1="32.005" x1="159.64">
						<stop stop-color="#43383E" offset="0"/>
						<stop stop-color="#453B41" offset=".0514"/>
						<stop stop-color="#4D4249" offset=".0842"/>
						<stop stop-color="#594E56" offset=".1119"/>
						<stop stop-color="#695E67" offset=".1366"/>
						<stop stop-color="#7B707A" offset=".1592"/>
						<stop stop-color="#7D727C" offset=".1613"/>
						<stop stop-color="#766B74" offset=".2218"/>
						<stop stop-color="#62575F" offset=".3268"/>
						<stop stop-color="#50454C" offset=".3978"/>
						<stop stop-color="#52474E" offset=".4259"/>
						<stop stop-color="#594E56" offset=".4462"/>
						<stop stop-color="#655962" offset=".464"/>
						<stop stop-color="#746772" offset=".4804"/>
						<stop stop-color="#877885" offset=".4958"/>
						<stop stop-color="#9D8C9D" offset=".5105"/>
						<stop stop-color="#B8A2B7" offset=".5243"/>
						<stop stop-color="#BEA7BD" offset=".5269"/>
						<stop stop-color="#4A3F45" offset="1"/>
					</linearGradient>
					<path d="m148.28 37.095c0.245 0.31 0.471 0.651 0.68 1.012 2.366 2.53 3.401 7.251 2.153 13.275-2.236 10.788-9.973 16.703-14.539 16.87 0.1 0.004 0.195 0.016 0.297 0.016 4.537 0 12.473-5.941 14.741-16.886 1.44-6.95-0.15-12.172-3.33-14.287z" fill="url(#SVGID_18_)"/>
					<linearGradient id="SVGID_19_" y2="75.114" gradientUnits="userSpaceOnUse" x2="128.42" y1="31.281" x1="158.58">
						<stop stop-color="#43383E" offset="0"/>
						<stop stop-color="#453B41" offset=".0514"/>
						<stop stop-color="#4D4249" offset=".0842"/>
						<stop stop-color="#594E56" offset=".1119"/>
						<stop stop-color="#695E67" offset=".1366"/>
						<stop stop-color="#7B707A" offset=".1592"/>
						<stop stop-color="#7D727C" offset=".1613"/>
						<stop stop-color="#766B74" offset=".2218"/>
						<stop stop-color="#62575F" offset=".3268"/>
						<stop stop-color="#50454C" offset=".3978"/>
						<stop stop-color="#52474E" offset=".4259"/>
						<stop stop-color="#594E56" offset=".4462"/>
						<stop stop-color="#655962" offset=".464"/>
						<stop stop-color="#746772" offset=".4804"/>
						<stop stop-color="#877885" offset=".4958"/>
						<stop stop-color="#9D8C9D" offset=".5105"/>
						<stop stop-color="#B8A2B7" offset=".5243"/>
						<stop stop-color="#BEA7BD" offset=".5269"/>
						<stop stop-color="#4A3F45" offset="1"/>
					</linearGradient>
					<path d="m147.78 37.095c2.077 2.622 2.925 7.141 1.75 12.812-2.231 10.767-9.942 16.679-14.511 16.868 0.091 0.003 0.176 0.018 0.27 0.018 4.537 0 12.473-5.941 14.741-16.886 1.036-5.001 0.496-9.101-1.07-11.799-0.36-0.39-0.76-0.731-1.18-1.013z" fill="url(#SVGID_19_)"/>
					<linearGradient id="SVGID_20_" y2="74.61" gradientUnits="userSpaceOnUse" x2="127.69" y1="30.777" x1="157.85">
						<stop stop-color="#43383E" offset="0"/>
						<stop stop-color="#453B41" offset=".0514"/>
						<stop stop-color="#4D4249" offset=".0842"/>
						<stop stop-color="#594E56" offset=".1119"/>
						<stop stop-color="#695E67" offset=".1366"/>
						<stop stop-color="#7B707A" offset=".1592"/>
						<stop stop-color="#7D727C" offset=".1613"/>
						<stop stop-color="#766B74" offset=".2218"/>
						<stop stop-color="#62575F" offset=".3268"/>
						<stop stop-color="#50454C" offset=".3978"/>
						<stop stop-color="#52474E" offset=".4259"/>
						<stop stop-color="#594E56" offset=".4462"/>
						<stop stop-color="#655962" offset=".464"/>
						<stop stop-color="#746772" offset=".4804"/>
						<stop stop-color="#877885" offset=".4958"/>
						<stop stop-color="#9D8C9D" offset=".5105"/>
						<stop stop-color="#B8A2B7" offset=".5243"/>
						<stop stop-color="#BEA7BD" offset=".5269"/>
						<stop stop-color="#4A3F45" offset="1"/>
					</linearGradient>
					<path d="m132.21 66.279c0.763 0.326 1.617 0.513 2.58 0.513 0.073 0 0.155-0.015 0.23-0.018-1.243-0.045-2.314-0.382-3.216-0.967 0.13 0.166 0.27 0.321 0.41 0.472z" fill="url(#SVGID_20_)"/>
					<path d="m132.21 66.279c0.763 0.326 1.617 0.513 2.58 0.513 0.073 0 0.155-0.015 0.23-0.018-1.243-0.045-2.314-0.382-3.216-0.967 0.13 0.166 0.27 0.321 0.41 0.472z" fill="url(#SVGID_20_)"/>
					<linearGradient id="SVGID_22_" y2="73.999" gradientUnits="userSpaceOnUse" x2="126.8" y1="30.166" x1="156.96">
						<stop stop-color="#43383E" offset="0"/>
						<stop stop-color="#453B41" offset=".0514"/>
						<stop stop-color="#4D4249" offset=".0842"/>
						<stop stop-color="#594E56" offset=".1119"/>
						<stop stop-color="#695E67" offset=".1366"/>
						<stop stop-color="#7B707A" offset=".1592"/>
						<stop stop-color="#7D727C" offset=".1613"/>
						<stop stop-color="#766B74" offset=".2218"/>
						<stop stop-color="#62575F" offset=".3268"/>
						<stop stop-color="#50454C" offset=".3978"/>
						<stop stop-color="#52474E" offset=".4259"/>
						<stop stop-color="#594E56" offset=".4462"/>
						<stop stop-color="#655962" offset=".464"/>
						<stop stop-color="#746772" offset=".4804"/>
						<stop stop-color="#877885" offset=".4958"/>
						<stop stop-color="#9D8C9D" offset=".5105"/>
						<stop stop-color="#B8A2B7" offset=".5243"/>
						<stop stop-color="#BEA7BD" offset=".5269"/>
						<stop stop-color="#4A3F45" offset="1"/>
					</linearGradient>
					<path d="m147.61 48.49c-2.228 10.754-9.922 16.663-14.493 16.866 0.086 0.003 0.164 0.019 0.252 0.019 4.537 0 12.473-5.941 14.741-16.886 1.04-5.019 0.486-9.124-1.093-11.823-0.211-0.101-0.425-0.195-0.647-0.271 1.7 2.692 2.32 6.913 1.24 12.095z" fill="url(#SVGID_22_)"/>
					<linearGradient id="SVGID_23_" y2="73.696" gradientUnits="userSpaceOnUse" x2="126.36" y1="29.863" x1="156.52">
						<stop stop-color="#43383E" offset="0"/>
						<stop stop-color="#453B41" offset=".0514"/>
						<stop stop-color="#4D4249" offset=".0842"/>
						<stop stop-color="#594E56" offset=".1119"/>
						<stop stop-color="#695E67" offset=".1366"/>
						<stop stop-color="#7B707A" offset=".1592"/>
						<stop stop-color="#7D727C" offset=".1613"/>
						<stop stop-color="#766B74" offset=".2218"/>
						<stop stop-color="#62575F" offset=".3268"/>
						<stop stop-color="#50454C" offset=".3978"/>
						<stop stop-color="#52474E" offset=".4259"/>
						<stop stop-color="#594E56" offset=".4462"/>
						<stop stop-color="#655962" offset=".464"/>
						<stop stop-color="#746772" offset=".4804"/>
						<stop stop-color="#877885" offset=".4958"/>
						<stop stop-color="#9D8C9D" offset=".5105"/>
						<stop stop-color="#B8A2B7" offset=".5243"/>
						<stop stop-color="#BEA7BD" offset=".5269"/>
						<stop stop-color="#4A3F45" offset="1"/>
					</linearGradient>
					<path d="m133.12 65.356c-0.659-0.023-1.274-0.121-1.837-0.302 0.031 0.05 0.067 0.093 0.098 0.143 0.47 0.105 0.958 0.179 1.49 0.179 0.08-0.001 0.17-0.016 0.25-0.02z" fill="url(#SVGID_23_)"/>
					<path d="m133.12 65.356c-0.659-0.023-1.274-0.121-1.837-0.302 0.031 0.05 0.067 0.093 0.098 0.143 0.47 0.105 0.958 0.179 1.49 0.179 0.08-0.001 0.17-0.016 0.25-0.02z" fill="url(#SVGID_23_)"/>
					<linearGradient id="SVGID_25_" y2="73.161" gradientUnits="userSpaceOnUse" x2="125.58" y1="29.328" x1="155.75">
						<stop stop-color="#43383E" offset="0"/>
						<stop stop-color="#453B41" offset=".0514"/>
						<stop stop-color="#4D4249" offset=".0842"/>
						<stop stop-color="#594E56" offset=".1119"/>
						<stop stop-color="#695E67" offset=".1366"/>
						<stop stop-color="#7B707A" offset=".1592"/>
						<stop stop-color="#7D727C" offset=".1613"/>
						<stop stop-color="#766B74" offset=".2218"/>
						<stop stop-color="#62575F" offset=".3268"/>
						<stop stop-color="#50454C" offset=".3978"/>
						<stop stop-color="#52474E" offset=".4259"/>
						<stop stop-color="#594E56" offset=".4462"/>
						<stop stop-color="#655962" offset=".464"/>
						<stop stop-color="#746772" offset=".4804"/>
						<stop stop-color="#877885" offset=".4958"/>
						<stop stop-color="#9D8C9D" offset=".5105"/>
						<stop stop-color="#B8A2B7" offset=".5243"/>
						<stop stop-color="#BEA7BD" offset=".5269"/>
						<stop stop-color="#4A3F45" offset="1"/>
					</linearGradient>
					<path d="m146.07 47.031c-2.238 10.8-9.99 16.717-14.554 16.871 0.104 0.005 0.206 0.015 0.313 0.015 4.537 0 12.473-5.941 14.741-16.886 0.906-4.373 0.606-8.058-0.529-10.72-0.184-0.051-0.365-0.108-0.555-0.143 1.19 2.672 1.51 6.415 0.59 10.863z" fill="url(#SVGID_25_)"/>
					<linearGradient id="SVGID_26_" y2="72.743" gradientUnits="userSpaceOnUse" x2="124.97" y1="28.91" x1="155.14">
						<stop stop-color="#43383E" offset="0"/>
						<stop stop-color="#453B41" offset=".0514"/>
						<stop stop-color="#4D4249" offset=".0842"/>
						<stop stop-color="#594E56" offset=".1119"/>
						<stop stop-color="#695E67" offset=".1366"/>
						<stop stop-color="#7B707A" offset=".1592"/>
						<stop stop-color="#7D727C" offset=".1613"/>
						<stop stop-color="#766B74" offset=".2218"/>
						<stop stop-color="#62575F" offset=".3268"/>
						<stop stop-color="#50454C" offset=".3978"/>
						<stop stop-color="#52474E" offset=".4259"/>
						<stop stop-color="#594E56" offset=".4462"/>
						<stop stop-color="#655962" offset=".464"/>
						<stop stop-color="#746772" offset=".4804"/>
						<stop stop-color="#877885" offset=".4958"/>
						<stop stop-color="#9D8C9D" offset=".5105"/>
						<stop stop-color="#B8A2B7" offset=".5243"/>
						<stop stop-color="#BEA7BD" offset=".5269"/>
						<stop stop-color="#4A3F45" offset="1"/>
					</linearGradient>
					<path d="m131.52 63.902c-0.296-0.015-0.584-0.042-0.861-0.088 0.01 0.025 0.025 0.045 0.035 0.069 0.208 0.02 0.419 0.033 0.639 0.033 0.05 0.001 0.12-0.012 0.18-0.014z" fill="url(#SVGID_26_)"/>
					<path d="m131.52 63.902c-0.296-0.015-0.584-0.042-0.861-0.088 0.01 0.025 0.025 0.045 0.035 0.069 0.208 0.02 0.419 0.033 0.639 0.033 0.05 0.001 0.12-0.012 0.18-0.014z" fill="url(#SVGID_26_)"/>
					<linearGradient id="SVGID_28_" y2="72.464" gradientUnits="userSpaceOnUse" x2="124.57" y1="28.63" x1="154.73">
						<stop stop-color="#43383E" offset="0"/>
						<stop stop-color="#453B41" offset=".0514"/>
						<stop stop-color="#4D4249" offset=".0842"/>
						<stop stop-color="#594E56" offset=".1119"/>
						<stop stop-color="#695E67" offset=".1366"/>
						<stop stop-color="#7B707A" offset=".1592"/>
						<stop stop-color="#7D727C" offset=".1613"/>
						<stop stop-color="#766B74" offset=".2218"/>
						<stop stop-color="#62575F" offset=".3268"/>
						<stop stop-color="#50454C" offset=".3978"/>
						<stop stop-color="#52474E" offset=".4259"/>
						<stop stop-color="#594E56" offset=".4462"/>
						<stop stop-color="#655962" offset=".464"/>
						<stop stop-color="#746772" offset=".4804"/>
						<stop stop-color="#877885" offset=".4958"/>
						<stop stop-color="#9D8C9D" offset=".5105"/>
						<stop stop-color="#B8A2B7" offset=".5243"/>
						<stop stop-color="#BEA7BD" offset=".5269"/>
						<stop stop-color="#4A3F45" offset="1"/>
					</linearGradient>
					<path d="m145.36 45.569c0.767-3.702 0.67-6.911-0.065-9.426-0.171-0.027-0.341-0.056-0.517-0.068 0.753 2.524 0.856 5.759 0.083 9.493-2.231 10.765-9.939 16.676-14.508 16.868 0.088 0.008 0.174 0.018 0.267 0.018 4.54 0.001 12.48-5.941 14.74-16.885z" fill="url(#SVGID_28_)"/>
					<linearGradient id="SVGID_29_" y2="71.895" gradientUnits="userSpaceOnUse" x2="123.74" y1="28.062" x1="153.91">
						<stop stop-color="#43383E" offset="0"/>
						<stop stop-color="#453B41" offset=".0514"/>
						<stop stop-color="#4D4249" offset=".0842"/>
						<stop stop-color="#594E56" offset=".1119"/>
						<stop stop-color="#695E67" offset=".1366"/>
						<stop stop-color="#7B707A" offset=".1592"/>
						<stop stop-color="#7D727C" offset=".1613"/>
						<stop stop-color="#766B74" offset=".2218"/>
						<stop stop-color="#62575F" offset=".3268"/>
						<stop stop-color="#50454C" offset=".3978"/>
						<stop stop-color="#52474E" offset=".4259"/>
						<stop stop-color="#594E56" offset=".4462"/>
						<stop stop-color="#655962" offset=".464"/>
						<stop stop-color="#746772" offset=".4804"/>
						<stop stop-color="#877885" offset=".4958"/>
						<stop stop-color="#9D8C9D" offset=".5105"/>
						<stop stop-color="#B8A2B7" offset=".5243"/>
						<stop stop-color="#BEA7BD" offset=".5269"/>
						<stop stop-color="#4A3F45" offset="1"/>
					</linearGradient>
					<path d="m130.15 62.423c0.003 0.01 0.007 0.019 0.01 0.029 0.061 0 0.128-0.012 0.191-0.015-0.06-0.007-0.13-0.01-0.2-0.014z" fill="url(#SVGID_29_)"/>
					<path d="m130.15 62.423c0.003 0.01 0.007 0.019 0.01 0.029 0.061 0 0.128-0.012 0.191-0.015-0.06-0.007-0.13-0.01-0.2-0.014z" fill="url(#SVGID_29_)"/>
					<linearGradient id="SVGID_31_" y2="71.468" gradientUnits="userSpaceOnUse" x2="123.12" y1="27.635" x1="153.29">
						<stop stop-color="#43383E" offset="0"/>
						<stop stop-color="#453B41" offset=".0514"/>
						<stop stop-color="#4D4249" offset=".0842"/>
						<stop stop-color="#594E56" offset=".1119"/>
						<stop stop-color="#695E67" offset=".1366"/>
						<stop stop-color="#7B707A" offset=".1592"/>
						<stop stop-color="#7D727C" offset=".1613"/>
						<stop stop-color="#766B74" offset=".2218"/>
						<stop stop-color="#62575F" offset=".3268"/>
						<stop stop-color="#50454C" offset=".3978"/>
						<stop stop-color="#52474E" offset=".4259"/>
						<stop stop-color="#594E56" offset=".4462"/>
						<stop stop-color="#655962" offset=".464"/>
						<stop stop-color="#746772" offset=".4804"/>
						<stop stop-color="#877885" offset=".4958"/>
						<stop stop-color="#9D8C9D" offset=".5105"/>
						<stop stop-color="#B8A2B7" offset=".5243"/>
						<stop stop-color="#BEA7BD" offset=".5269"/>
						<stop stop-color="#4A3F45" offset="1"/>
					</linearGradient>
					<path d="m143.36 44.549c0.664-3.204 0.679-6.038 0.195-8.374-0.158 0.027-0.32 0.072-0.481 0.11 0.461 2.315 0.439 5.109-0.214 8.264-2.002 9.661-8.408 15.394-13.006 16.612 0.008 0.04 0.01 0.085 0.019 0.125 4.62-0.931 11.41-6.738 13.48-16.737z" fill="url(#SVGID_31_)"/>
					<linearGradient id="SVGID_32_" y2="70.498" gradientUnits="userSpaceOnUse" x2="121.71" y1="26.664" x1="151.88">
						<stop stop-color="#43383E" offset="0"/>
						<stop stop-color="#453B41" offset=".0514"/>
						<stop stop-color="#4D4249" offset=".0842"/>
						<stop stop-color="#594E56" offset=".1119"/>
						<stop stop-color="#695E67" offset=".1366"/>
						<stop stop-color="#7B707A" offset=".1592"/>
						<stop stop-color="#7D727C" offset=".1613"/>
						<stop stop-color="#766B74" offset=".2218"/>
						<stop stop-color="#62575F" offset=".3268"/>
						<stop stop-color="#50454C" offset=".3978"/>
						<stop stop-color="#52474E" offset=".4259"/>
						<stop stop-color="#594E56" offset=".4462"/>
						<stop stop-color="#655962" offset=".464"/>
						<stop stop-color="#746772" offset=".4804"/>
						<stop stop-color="#877885" offset=".4958"/>
						<stop stop-color="#9D8C9D" offset=".5105"/>
						<stop stop-color="#B8A2B7" offset=".5243"/>
						<stop stop-color="#BEA7BD" offset=".5269"/>
						<stop stop-color="#4A3F45" offset="1"/>
					</linearGradient>
					<path d="m141.4 43.257c0.504-2.433 0.635-4.653 0.457-6.604-0.117 0.045-0.233 0.085-0.351 0.135-0.048 0.02-0.091 0.048-0.139 0.069 0.151 1.903 0.02 4.049-0.467 6.4-1.765 8.515-6.956 13.986-11.313 16.002 0.007 0.073 0.009 0.148 0.016 0.221 4.45-1.823 9.97-7.392 11.79-16.223z" fill="url(#SVGID_32_)"/>
					<linearGradient id="SVGID_33_" y2="69.523" gradientUnits="userSpaceOnUse" x2="120.29" y1="25.69" x1="150.46">
						<stop stop-color="#43383E" offset="0"/>
						<stop stop-color="#453B41" offset=".0514"/>
						<stop stop-color="#4D4249" offset=".0842"/>
						<stop stop-color="#594E56" offset=".1119"/>
						<stop stop-color="#695E67" offset=".1366"/>
						<stop stop-color="#7B707A" offset=".1592"/>
						<stop stop-color="#7D727C" offset=".1613"/>
						<stop stop-color="#766B74" offset=".2218"/>
						<stop stop-color="#62575F" offset=".3268"/>
						<stop stop-color="#50454C" offset=".3978"/>
						<stop stop-color="#52474E" offset=".4259"/>
						<stop stop-color="#594E56" offset=".4462"/>
						<stop stop-color="#655962" offset=".464"/>
						<stop stop-color="#746772" offset=".4804"/>
						<stop stop-color="#877885" offset=".4958"/>
						<stop stop-color="#9D8C9D" offset=".5105"/>
						<stop stop-color="#B8A2B7" offset=".5243"/>
						<stop stop-color="#BEA7BD" offset=".5269"/>
						<stop stop-color="#4A3F45" offset="1"/>
					</linearGradient>
					<path d="m139.53 41.632c0.301-1.453 0.466-2.829 0.515-4.119-0.18 0.1-0.351 0.213-0.526 0.319-0.062 1.199-0.212 2.462-0.489 3.799-1.528 7.373-5.626 12.457-9.527 15.001-0.002 0.108-0.011 0.22-0.012 0.327 4.06-2.42 8.46-7.63 10.05-15.327z" fill="url(#SVGID_33_)"/>
				<linearGradient id="SVGID_34_" y2="49.843" gradientUnits="userSpaceOnUse" x2="147.67" y1="58.343" x1="138.36">
					<stop stop-color="#4D220F" offset="0"/>
					<stop stop-color="#502411" offset=".2176"/>
					<stop stop-color="#572A17" offset=".3745"/>
					<stop stop-color="#633320" offset=".5125"/>
					<stop stop-color="#723F2B" offset=".6395"/>
					<stop stop-color="#854D37" offset=".7589"/>
					<stop stop-color="#9C5E45" offset=".8728"/>
					<stop stop-color="#B87256" offset=".9802"/>
					<stop stop-color="#BE7659" offset="1"/>
				</linearGradient>
				<path d="m131.48 46.726l24.625 9.875s1.583 0.667 0.875 2.375-2.75 1.083-2.75 1.083l-24.25-10.017 1.5-3.316z" fill="url(#SVGID_34_)"/>
				<path d="m129.56 55.15c-0.522 7.072 1.643 13.118 7.312 13.118 3.51 0 9.044-3.57 12.425-10.248l-18.805-7.768c-0.5 1.644-0.82 3.301-0.94 4.898z" fill="none"/>
				<path d="m141.51 36.789c-4.383 1.863-7.7 5.719-9.726 10.058l18.986 7.614c0.326-0.982 0.618-1.999 0.842-3.079 2.27-10.945-2.99-17.616-10.1-14.593z" fill="none"/>
				<linearGradient id="SVGID_35_" y2="36.166" gradientUnits="userSpaceOnUse" x2="149.48" y1="70.462" x1="132.68">
					<stop stop-color="#43383E" offset="0"/>
					<stop stop-color="#453B41" offset=".0531"/>
					<stop stop-color="#4D4249" offset=".0871"/>
					<stop stop-color="#594E56" offset=".1156"/>
					<stop stop-color="#695E67" offset=".1411"/>
					<stop stop-color="#7B707A" offset=".1645"/>
					<stop stop-color="#7D727C" offset=".1667"/>
					<stop stop-color="#877A86" offset=".183"/>
					<stop stop-color="#988997" offset=".2165"/>
					<stop stop-color="#A694A6" offset=".2551"/>
					<stop stop-color="#B19DB0" offset=".3001"/>
					<stop stop-color="#B8A3B8" offset=".3557"/>
					<stop stop-color="#BDA6BC" offset=".4338"/>
					<stop stop-color="#BEA7BD" offset=".6505"/>
					<stop stop-color="#4A3F45" offset="1"/>
				</linearGradient>
				<path d="m136.87 68.268c-5.67 0-7.835-6.046-7.312-13.118 0.118-1.597 0.439-3.253 0.932-4.898l-0.508-0.21 1.5-3.317 0.301 0.121c2.026-4.339 5.342-8.195 9.726-10.058 7.113-3.023 12.37 3.648 10.102 14.593-0.224 1.08-0.517 2.097-0.842 3.079l2.765 1.109c0.363-1.11 0.693-2.255 0.948-3.468 2.75-13.125-3.625-21.125-12.25-17.5s-13.859 13.538-14.492 22.019 1.992 15.731 8.867 15.731c4.41 0 11.462-4.589 15.505-13.167l-2.818-1.164c-3.38 6.677-8.92 10.248-12.43 10.248z" fill="url(#SVGID_35_)"/>
				<linearGradient id="SVGID_36_" y2="31.244" gradientUnits="userSpaceOnUse" x2="139.44" y1="65.539" x1="122.63">
					<stop stop-color="#43383E" offset="0"/>
					<stop stop-color="#453B41" offset=".0531"/>
					<stop stop-color="#4D4249" offset=".0871"/>
					<stop stop-color="#594E56" offset=".1156"/>
					<stop stop-color="#695E67" offset=".1411"/>
					<stop stop-color="#7B707A" offset=".1645"/>
					<stop stop-color="#7D727C" offset=".1667"/>
					<stop stop-color="#877A86" offset=".183"/>
					<stop stop-color="#988997" offset=".2165"/>
					<stop stop-color="#A694A6" offset=".2551"/>
					<stop stop-color="#B19DB0" offset=".3001"/>
					<stop stop-color="#B8A3B8" offset=".3557"/>
					<stop stop-color="#BDA6BC" offset=".4338"/>
					<stop stop-color="#BEA7BD" offset=".6505"/>
					<stop stop-color="#4A3F45" offset="1"/>
				</linearGradient>
				<path d="m131.48 46.726l-1.5 3.317 0.508 0.21c0.345-1.151 0.774-2.293 1.293-3.406l-0.3-0.121z" fill="url(#SVGID_36_)"/>
</svg>
